<svg width="115" height="48" viewBox="0 0 115 48" fill="none" xmlns="http://www.w3.org/2000/svg">
<rect width="115" height="48" rx="4" fill="white"/>
<path d="M62.2242 17.2651L55.5797 24.268L62.9125 31.7349H60.027L53.2501 24.6436V31.7349H51V17.2651H53.2501V24.246L59.7093 17.2651H62.2242Z" fill="#726C8A"/>
<path d="M67.1583 17.2651V31.7349H64.9082V17.2651H67.1583Z" fill="#726C8A"/>
<path d="M81.8067 17.2651L76.777 26.7644V31.7349H74.5269V26.7644L69.4972 17.2651H72.065L75.6652 24.7761L79.2919 17.2651H81.8067Z" fill="#726C8A"/>
<path d="M88.8498 17C90.8263 17 92.2823 17.4124 93.2177 18.2371C94.153 19.0619 94.6207 20.2327 94.6207 21.7496V27.2504C94.6207 28.7673 94.153 29.9381 93.2177 30.7629C92.2823 31.5876 90.8263 32 88.8498 32C86.8732 32 85.4172 31.5876 84.4819 30.7629C83.5465 29.9381 83.0788 28.7673 83.0788 27.2504V21.7496C83.0788 20.2327 83.5465 19.0619 84.4819 18.2371C85.4172 17.4124 86.8732 17 88.8498 17ZM88.8498 18.6568C87.685 18.6568 86.8026 18.8999 86.2025 19.3859C85.6202 19.8719 85.329 20.5862 85.329 21.5287V27.4492C85.329 28.3918 85.6202 29.1134 86.2025 29.6141C86.8026 30.1001 87.685 30.3432 88.8498 30.3432C90.0145 30.3432 90.8881 30.1001 91.4705 29.6141C92.0705 29.1134 92.3706 28.3918 92.3706 27.4492V21.5508C92.3706 20.6082 92.0705 19.894 91.4705 19.408C90.8881 18.9072 90.0145 18.6568 88.8498 18.6568Z" fill="#726C8A"/>
<path d="M33.4209 21.627L32.254 21.2702L32.9952 18.8041C34.0181 15.4009 32.2346 11.8396 29.0141 10.8547C25.7936 9.86984 22.3497 11.8325 21.3268 15.2357L20.5856 17.7018L19.4188 17.3449C18.1352 16.9524 16.7515 17.741 16.3439 19.0973L12.6378 31.4277C12.2301 32.784 12.9467 34.2149 14.2302 34.6074L28.2323 38.8895C29.5159 39.282 30.8996 38.4934 31.3072 37.1371L35.0133 24.8067C35.421 23.4504 34.7044 22.0195 33.4209 21.627ZM23.0843 30.5833C21.8008 30.1908 21.0842 28.7599 21.4919 27.4035C21.8995 26.0472 23.2832 25.2586 24.5668 25.6511C25.8503 26.0437 26.5669 27.4746 26.1592 28.8309C25.7516 30.1872 24.3679 30.9758 23.0843 30.5833ZM30.037 20.5922L22.8026 18.3798L23.5438 15.9137C24.1776 13.8052 26.3146 12.5873 28.3099 13.1975C30.3052 13.8077 31.412 16.0176 30.7782 18.1261L30.037 20.5922Z" fill="#645794"/>
<path d="M18.6019 16.4944C20.0497 16.6648 21.2965 17.7295 21.6311 19.2367C22.0553 21.1481 20.8499 23.0516 18.9425 23.4823C17.0351 23.913 15.1402 22.7097 14.716 20.7982C14.3815 19.291 15.0593 17.7917 16.2969 17.015L16.0685 15.9861L14.0452 16.443L13.7262 15.0054L15.7495 14.5485L15.564 13.7127L13.2589 14.2332L12.8879 12.5616L15.193 12.041L17.498 11.5205L18.6019 16.4944ZM17.021 20.2777C17.162 20.9129 17.796 21.3155 18.4299 21.1724C19.0637 21.0293 19.467 20.3924 19.326 19.7572C19.1851 19.122 18.5511 18.7193 17.9172 18.8625C17.2833 19.0056 16.88 19.6425 17.021 20.2777Z" fill="#A898DF"/>
</svg>
